<?xml version="1.0" encoding="utf-8"?>
<!-- Generator: Adobe Illustrator 17.0.0, SVG Export Plug-In . SVG Version: 6.00 Build 0)  -->
<!DOCTYPE svg PUBLIC "-//W3C//DTD SVG 1.1//EN" "http://www.w3.org/Graphics/SVG/1.1/DTD/svg11.dtd">
<svg version="1.1" id="Layer_1" xmlns="http://www.w3.org/2000/svg" xmlns:xlink="http://www.w3.org/1999/xlink" x="0px" y="0px"
	 width="600px" height="600px" viewBox="0 0 600 600" enable-background="new 0 0 600 600" xml:space="preserve">
<g>
	<g>
		<path fill="#32B9EC" d="M362.722,564.904H244.739c-7.724,0-13.983-6.259-13.983-13.978s6.259-13.978,13.983-13.978h117.983
			c7.719,0,13.978,6.259,13.978,13.978S370.441,564.904,362.722,564.904z"/>
	</g>
	<g>
		<path fill="#32B9EC" d="M349.616,595.142H257.84c-7.724,0-13.983-6.259-13.983-13.978s6.259-13.978,13.983-13.978h91.776
			c7.719,0,13.978,6.259,13.978,13.978S357.335,595.142,349.616,595.142z"/>
	</g>
	<g>
		<path fill="#32B9EC" d="M284.14,475.16c-7.719,0-13.978-6.249-13.983-13.968c-0.039-43.011-1.259-75.658-7.214-105.465
			c-5.975-30.022-16.608-57.4-35.552-91.541c-3.747-6.754-1.313-15.261,5.441-19.008c6.773-3.747,15.266-1.303,19.008,5.441
			c20.433,36.815,31.952,66.612,38.529,99.632c6.401,32.05,7.714,66.206,7.753,110.921c0.01,7.719-6.249,13.988-13.968,13.988
			H284.14z"/>
	</g>
	<g>
		
			<path fill-rule="evenodd" clip-rule="evenodd" fill="none" stroke="#32B9EC" stroke-width="27.9645" stroke-linecap="round" stroke-miterlimit="10" d="
			M294.172,461.178"/>
	</g>
	<g>
		<path fill="#32B9EC" d="M323.306,475.16h-0.01c-7.728,0-13.978-6.269-13.968-13.988c0.039-44.666,1.352-78.802,7.758-110.921
			c6.573-33.039,18.102-62.836,38.525-99.637c3.752-6.754,12.264-9.183,19.013-5.436s9.188,12.259,5.436,19.012
			c-18.934,34.112-29.572,61.485-35.547,91.526c-5.965,29.875-7.19,62.513-7.229,105.475
			C337.284,468.911,331.025,475.16,323.306,475.16z"/>
	</g>
	<g>
		<path fill="#32B9EC" d="M334.639,283.008c-4.711,0-9.492-1.366-14.046-5.079l-8.737-7.121c-4.927,3.071-11.48,2.85-16.245-1.033
			c-5.985-4.883-6.876-13.689-1.993-19.674c8.179-10.016,22.97-11.509,32.98-3.355l9.648,7.866c2.096-0.774,5.309-2.395,7.062-3.276
			c6.122-3.085,12.46-6.274,20.08-8.737c7.376-2.37,15.232,1.665,17.602,9.007c2.38,7.346-1.655,15.232-9.002,17.607
			c-5.573,1.802-10.667,4.359-15.594,6.837C350.312,279.114,342.583,283.008,334.639,283.008z"/>
	</g>
	<g>
		<path fill="#32B9EC" d="M273.517,283.169c-7.993,0-15.697-3.879-21.535-6.817c-5.564-2.811-10.77-5.431-16.525-7.288
			c-7.351-2.375-11.382-10.256-9.012-17.602c2.38-7.351,10.27-11.372,17.602-9.012c7.812,2.522,14.272,5.774,19.972,8.644
			c2.268,1.151,5.784,2.919,7.973,3.707L282,246.643c4.907-3.996,11.054-5.848,17.377-5.187c6.289,0.651,11.94,3.698,15.917,8.581
			c4.878,5.99,3.977,14.796-2.018,19.674c-4.819,3.913-11.48,4.099-16.422,0.901l-9.105,7.42
			C283.131,281.793,278.273,283.169,273.517,283.169z"/>
	</g>
	<g>
		<path fill="#32B9EC" d="M363.545,531.199H244.739c-13.307,0-24.131-10.833-24.131-24.145c0-28.367-6.186-35.155-26.692-57.635
			l0.034-0.029l-0.167-0.069c-11.803-12.93-27.735-30.375-47.188-56.998c-12.107-16.544-21.481-34.842-27.862-54.354
			c-6.352-19.492-9.57-39.783-9.57-60.319c0-25.717,4.976-50.749,14.786-74.409c10.055-24.052,24.194-45.151,42.208-63.164
			c18.146-18.151,39.401-32.344,63.164-42.193c47.12-19.586,101.4-19.649,148.77-0.015c23.812,9.864,45.078,24.067,63.218,42.212
			c36.742,36.737,56.969,85.591,56.969,137.569c0,20.457-3.203,40.748-9.541,60.299c-6.347,19.483-15.731,37.78-27.887,54.383
			c-19.022,26.036-34.822,43.52-46.361,56.283c-20.59,22.774-26.8,29.64-26.8,58.438
			C387.69,520.365,376.857,531.199,363.545,531.199z M248.53,503.243h111.244c0.764-36.654,12.744-49.897,33.931-73.327
			c11.784-13.047,26.398-29.219,44.568-54.089c10.422-14.232,18.444-29.875,23.871-46.517c5.417-16.75,8.179-34.131,8.179-51.66
			c0-44.505-17.328-86.34-48.79-117.797c-15.525-15.535-33.745-27.696-54.138-36.154c-40.552-16.794-86.996-16.755-127.362,0
			c-20.369,8.453-38.569,20.619-54.099,36.149c-15.427,15.432-27.544,33.509-36.002,53.737
			c-8.546,20.614-12.802,42.046-12.802,64.066c0,17.587,2.757,34.959,8.189,51.64c5.461,16.701,13.488,32.363,23.851,46.527
			c18.557,25.399,33.274,41.512,45.097,54.461l-0.113,0.108l0.328,0.069C235.081,453.052,247.717,466.922,248.53,503.243z"/>
	</g>
	<g>
		<path fill="#32B9EC" d="M192.545,226.215l-25.771-10.863c3.663-8.688,8.243-17.147,13.606-25.135l17.587,11.803l-17.548-11.906
			c5.382-7.934,11.49-15.349,18.146-22.034c6.636-6.631,14.071-12.739,22.122-18.19c7.836-5.28,16.299-9.864,25.174-13.635
			c9.212-3.884,18.743-6.822,28.372-8.742l5.466,27.427c-7.777,1.548-15.491,3.928-22.935,7.067
			c-7.204,3.061-14.086,6.788-20.423,11.059c-6.568,4.442-12.626,9.418-17.984,14.776c-5.397,5.417-10.378,11.46-14.781,17.945
			l0.02,0.015C199.23,212.306,195.513,219.172,192.545,226.215z"/>
	</g>
	<g>
		<path fill="#32B9EC" d="M303.726,60.872c-7.724,0-13.983-6.259-13.983-13.983V19.125c0-7.724,6.259-13.983,13.983-13.983
			c7.719,0,13.978,6.259,13.978,13.983v27.765C317.703,54.613,311.444,60.872,303.726,60.872z"/>
	</g>
	<g>
		<path fill="#32B9EC" d="M198.295,75.085c-5.094,0-10.011-2.801-12.474-7.655l-12.572-24.767
			c-3.492-6.886-0.744-15.305,6.142-18.797c6.891-3.472,15.31-0.744,18.797,6.142l12.562,24.757
			c3.497,6.886,0.754,15.3-6.132,18.797C202.59,74.595,200.425,75.085,198.295,75.085z"/>
	</g>
	<g>
		<path fill="#32B9EC" d="M401.394,75.085c-2.126,0-4.281-0.49-6.308-1.513c-6.886-3.487-9.648-11.901-6.161-18.787l12.577-24.782
			c3.507-6.886,11.95-9.624,18.797-6.132c6.886,3.497,9.638,11.911,6.142,18.797L413.883,67.41
			C411.414,72.278,406.497,75.085,401.394,75.085z"/>
	</g>
	<g>
		<path fill="#32B9EC" d="M472.389,146.061c-4.134,0-8.218-1.822-10.98-5.314c-4.79-6.058-3.761-14.85,2.302-19.639l21.745-17.23
			c6.044-4.795,14.84-3.791,19.649,2.268c4.79,6.053,3.781,14.85-2.272,19.644l-21.785,17.259
			C478.482,145.076,475.426,146.061,472.389,146.061z"/>
	</g>
	<g>
		<path fill="#32B9EC" d="M127.632,146.061c-3.041,0-6.102-0.989-8.674-3.022l-21.76-17.249c-6.053-4.795-7.072-13.591-2.272-19.639
			c4.795-6.058,13.591-7.077,19.639-2.272l21.76,17.24c6.053,4.795,7.072,13.591,2.277,19.644
			C135.841,144.244,131.756,146.061,127.632,146.061z"/>
	</g>
</g>
</svg>
