<svg id="idea-icon" xmlns="http://www.w3.org/2000/svg" width="53.733" height="71.33" viewBox="0 0 53.733 71.33">
    <path fill-rule="evenodd" clip-rule="evenodd" fill="none" stroke="currentColor" stroke-width="2.788" stroke-linecap="round" stroke-linejoin="round" stroke-miterlimit="10" d="M20.986 60.045H32.75" />
    <path fill-rule="evenodd" clip-rule="evenodd" fill="none" stroke="currentColor" stroke-width="2.788" stroke-linecap="round" stroke-miterlimit="10" d="M22.293 63.06h9.15M20.475 30.78c1.963 3.54 3.073 6.42 3.693 9.53.614 3.076.742 6.375.746 10.787M28.82 51.097c.003-4.41.133-7.71.746-10.787.62-3.11 1.73-5.99 3.693-9.53M26.94 30.934c.327-.4.923-.464 1.327-.135l1.162.946c.507.413 1.19.088 2.01-.325l.053-.026c.525-.264 1.094-.55 1.752-.763M26.94 30.927c-.334-.41-.945-.475-1.358-.14l-1.19.97c-.52.423-1.217.09-2.057-.333l-.053-.028c-.537-.27-1.12-.563-1.793-.78" />
    <path fill-rule="evenodd" clip-rule="evenodd" fill="none" stroke="currentColor" stroke-width="2.788" stroke-linecap="round" stroke-linejoin="bevel" stroke-miterlimit="10" d="M39.598 20.07c3.257 3.256 5.272 7.756 5.272 12.73 0 1.942-.313 3.82-.883 5.58-.593 1.82-1.472 3.517-2.58 5.03-1.856 2.54-3.363 4.208-4.534 5.505-2.106 2.328-3.028 3.35-3.028 6.756 0 .56-.455 1.014-1.013 1.014H20.986c-.56 0-1.012-.455-1.012-1.013 0-3.373-.943-4.402-3.035-6.695v-.002l-.004.002c-1.18-1.293-2.705-2.96-4.608-5.564-1.106-1.512-1.983-3.21-2.578-5.03-.573-1.758-.885-3.64-.885-5.58 0-2.433.487-4.76 1.368-6.885l.016-.04c.916-2.192 2.25-4.165 3.89-5.805 1.652-1.653 3.635-2.99 5.844-3.904v-.002c2.124-.88 4.452-1.366 6.885-1.366 2.428 0 4.752.485 6.88 1.366 2.206.914 4.195 2.252 5.848 3.905" />
    <path fill-rule="evenodd" clip-rule="evenodd" fill="none" stroke="currentColor" stroke-width="2.788" stroke-miterlimit="10" d="M15.727 24.855c.49-.72 1.04-1.39 1.644-1.996.6-.6 1.272-1.152 2-1.644.7-.472 1.465-.887 2.274-1.23.812-.344 1.667-.612 2.556-.79m-9.702 7.934c.34-.803.754-1.563 1.23-2.27" />
    <path fill="none" stroke="currentColor" stroke-width="2.788" stroke-linecap="round" stroke-linejoin="round" stroke-miterlimit="10" d="M26.867 7.025v2.767M15.102 8.74l.975 1.922.278.548M37.858 8.74l-.975 1.922-.278.548M45.85 16.567l-1.687 1.338-.48.382M7.142 16.567l1.688 1.338.482.382" />
</svg>
