<svg id="lock-icon" xmlns="http://www.w3.org/2000/svg" width="75.334" height="71.333" viewBox="0 0 75.334 71.333">
    <g fill="none" stroke="currentColor" stroke-miterlimit="10">
        <path fill-rule="evenodd" clip-rule="evenodd" stroke-width="2.74" d="M17.425 31.945v15.05c0 11.18 9.062 20.242 20.242 20.242 11.18 0 20.242-9.063 20.242-20.243v-15.05H17.424z" />
        <path fill-rule="evenodd" clip-rule="evenodd" stroke-width="2.74" d="M52.147 31.945V17.53c0-8-6.483-14.48-14.48-14.48-7.998 0-14.48 6.48-14.48 14.48v14.415h28.96z" />
        <path fill-rule="evenodd" clip-rule="evenodd" stroke-width="2.74" d="M46.6 26.413v-8.896c0-4.934-4-8.934-8.933-8.934-4.934 0-8.934 4-8.934 8.934v8.896H46.6z" />
        <path stroke-width="1.827" d="M41.678 40.298h-8.023c-1.14 0-1.604.806-1.035 1.793l2.847 4.932c-1.315.762-2.202 2.18-2.202 3.81 0 2.428 1.97 4.398 4.4 4.398 2.43 0 4.4-1.97 4.4-4.4 0-1.627-.886-3.046-2.2-3.807l2.847-4.932c.57-.986.105-1.792-1.034-1.792z" />
        <path fill-rule="evenodd" clip-rule="evenodd" stroke-width="1.827" d="M23.388 37.143V47.76c0 7.885 6.393 14.28 14.28 14.28" />
    </g>
</svg>
